<svg xmlns="http://www.w3.org/2000/svg" width="79.504" height="25.646" viewBox="0 0 79.504 25.646">
  <path id="path2" d="M41.638,20.71h3.719V9.874H41.638Zm5-18.209h-2.5V5h2.5ZM32.6,3.719H29.007V6.86h3.334c2.116,0,3.334,1.026,3.334,2.949s-1.218,3.013-3.334,3.013H29.007v-5.9H25.289V20.71h3.719V15.965h3.526c4.3,0,6.8-2.308,6.8-6.283,0-3.719-2.436-5.963-6.732-5.963ZM49.14,0h-7.5V7.5h7.5ZM47.922,6.219h-5v-5h5Zm21.8-2.5h-3.4V6.86h3.206c2.116,0,3.334,1.026,3.334,2.949s-1.218,3.013-3.334,3.013H66.323v-5.9H62.6V20.71h3.719V15.965h3.4c4.3,0,6.8-2.308,6.8-6.283,0-3.719-2.5-5.963-6.8-5.963Zm31.225,3.975L97.74,15.773,94.534,7.694H90.687L95.816,20.71l-1.988,4.937H97.74l7.053-17.953ZM84.276,7.63a12.38,12.38,0,0,0-5.9,1.475l1.154,2.565a8,8,0,0,1,3.911-1.154c1.8,0,2.693.769,2.693,2.18v.256H82.544c-3.206,0-4.937,1.475-4.937,3.911,0,2.372,1.667,4.039,4.488,4.039a5.307,5.307,0,0,0,4.1-1.731v1.411h3.655V12.118c-.128-2.757-2.116-4.488-5.578-4.488Zm2.18,8.72a3.088,3.088,0,0,1-3.013,1.988c-1.282,0-2.052-.641-2.052-1.667S82.1,15.2,83.506,15.2h2.949ZM54.846,17.888c-1.8,0-3.078-1.411-3.078-3.526A3.146,3.146,0,0,1,54.846,10.9,3.561,3.561,0,0,1,57.8,12.31l2.5-1.8a6.511,6.511,0,0,0-5.642-2.757,6.226,6.226,0,0,0-6.6,6.6,6.259,6.259,0,0,0,6.6,6.6,6.381,6.381,0,0,0,5.77-2.885L57.86,16.35a3.32,3.32,0,0,1-3.013,1.539Z" transform="translate(-25.289)" fill="#21c25e"/>
</svg>
