<svg xmlns="http://www.w3.org/2000/svg" width="130.837" height="18.332" viewBox="0 0 130.837 18.332">
  <g id="layer1" transform="translate(-301.306 -495.057)">
    <g id="g21587" transform="translate(301.306 495.057)">
      <path id="path10057" d="M832.541,1182.947l3.816,2.546,4.583-3.055-1.908-1.277,2.482-1.65,5.343,3.565-8.779,5.853,1.908,1.277,10.888-7.258-9.166-6.111Zm18.332,6.111-3.823-2.546-4.583,3.055,1.908,1.269-2.482,1.657-5.343-3.565,8.779-5.853-1.908-1.277-10.88,7.258,9.166,6.111Zm0-9.675-1.915,1.277-1.908-1.277,3.823-2.546Zm-18.332,13.24,1.908-1.277,1.908,1.277-3.816,2.546Z" transform="translate(-832.541 -1176.836)" fill="#003882" fill-rule="evenodd"/>
      <path id="path10059" d="M875.35,1194.3c1.2,0,4.174-.136,4.174-3.228,0-1.678-.524-2.847-2.532-3.1a2.6,2.6,0,0,0,2.3-2.726c0-2.6-1.771-3.163-3.93-3.163h-5.013V1194.3Zm89.976,0c1.678,0,3.371-.222,3.371-2.812,0-2.991-4.332-2.69-4.332-4.59a1,1,0,0,1,1.133-1.062h2.324V1184.3h-3.263c-2.675,0-3.335,1.212-3.335,2.776,0,2.977,4.8,2.9,4.8,4.583a1.022,1.022,0,0,1-1.1,1.133h-3.436l-2.546-8.485h-3.048l-2.819,9.1-1.771-3.916c1.3-.237,1.815-1.062,1.822-2.568a2.384,2.384,0,0,0-2.589-2.618h-4.77v10h2.6v-8.463h.868a1.382,1.382,0,0,1,1.37,1.521c0,.832-.416,1.52-1.083,1.477l-.732.007,2.374,5.458h4.174l.624-2.216h2.7l.617,2.216Zm-7.065-3.744h-1.929l.918-4.1Zm-29.041,4.038c3.895,0,3.895-2.589,3.895-5.243,0-2.69,0-5.25-3.895-5.25s-3.895,2.561-3.895,5.25c0,2.654,0,5.243,3.895,5.243m0-1.52c-1.14,0-1.291-1.119-1.291-3.722s.151-3.73,1.291-3.73,1.284,1.126,1.284,3.73-.143,3.722-1.284,3.722m-12.365,1.226h3.8c3.988,0,3.722-3.529,3.722-5.071,0-3.12-.574-4.956-3.629-4.956h-3.895Zm2.539-8.47h1.026c1.4,0,1.4,1.628,1.4,3.471,0,2.517-.244,3.479-1.463,3.479H919.4Zm20.2,3.141h.631c1.219,0,1.607.667,1.607,1.743,0,1.714-1.155,1.729-1.671,1.729h-1.341v-3.45Zm-.775-1.865v-3.12h1.492a1.424,1.424,0,0,1,1.391,1.556c0,1.183-.739,1.549-1.262,1.549H939.6Zm1.915,7.2c1.2,0,4.174-.136,4.174-3.235,0-1.678-.524-2.84-2.525-3.1a2.6,2.6,0,0,0,2.3-2.726c0-2.6-1.779-3.163-3.93-3.163h-5.021v12.221Zm38.451-.007v-1.513h-2.969V1184.3h-2.539v10Zm-7-10h-2.546v10h2.546ZM910.2,1194.6c3.895,0,3.895-2.6,3.895-5.265,0-2.7,0-5.272-3.895-5.272s-3.887,2.568-3.887,5.272c0,2.668,0,5.265,3.887,5.265m0-1.521c-1.141,0-1.284-1.133-1.284-3.744s.143-3.744,1.284-3.744,1.291,1.126,1.291,3.744-.151,3.744-1.291,3.744m-25.168-2.525H883.1l.918-4.088ZM882.1,1194.3l.631-2.216h2.7l.617,2.216h2.661l-3.005-10h-3.041l-3.07,10Zm19.968.294c2.209,0,3.5-.875,3.5-3.6H903.05c-.029.8-.043,2.08-.983,2.08-1.069,0-1.226-.653-1.226-3.744,0-3.206.244-3.744,1.176-3.744.667,0,.968.5.968,1.865h2.5c.093-2.195-1.126-3.393-3.536-3.393-3.586,0-3.687,2.281-3.687,5.272s-.093,5.265,3.8,5.265m-10.608-.294v-6.663l2.776,6.663h3.005v-10h-2.166v6.462l-2.7-6.462h-3.077v10Zm-17.421-5.343h.394c1.492,0,1.965.66,1.965,1.743,0,1.707-1.413,1.722-2.044,1.722h-.925v-3.45Zm-.61-1.872v-3.12h1.1a1.578,1.578,0,0,1,1.707,1.556,1.472,1.472,0,0,1-1.549,1.556h-1.04Z" transform="translate(-848.354 -1179.032)" fill="#003882" fill-rule="evenodd"/>
    </g>
  </g>
</svg>
