<svg xmlns="http://www.w3.org/2000/svg" width="88.248" height="22.993" viewBox="0 0 88.248 22.993">
  <g id="layer1" transform="translate(-14.48 -12.468)">
    <g id="g1222" transform="translate(14.48 12.468)">
      <path id="path1224" d="M-32.376-10.588c0-5.822-7.235-10.569-16.159-10.569S-64.692-16.41-64.692-10.588c0,.15,0,.567,0,.62,0,6.175,6.322,11.179,16.156,11.179,9.9,0,16.161-5,16.161-11.179Z" transform="translate(64.694 21.157)" fill="#28316b"/>
    </g>
    <g id="g1226" transform="translate(15.106 13.091)">
      <path id="path1228" d="M-31.129-9.959c0,5.488-6.954,9.939-15.536,9.939S-62.2-4.47-62.2-9.959s6.955-9.94,15.535-9.94,15.536,4.451,15.536,9.94" transform="translate(62.2 19.899)" fill="#50b4e9"/>
    </g>
    <g id="g1230" transform="translate(25.386 16.299)">
      <path id="path1232" d="M-.1-3.6c-.009.016-.164.177-.064.3a1.945,1.945,0,0,0,1.77.321,5.134,5.134,0,0,0,1.6-1.016,6.415,6.415,0,0,1,1.835-1.17A2.1,2.1,0,0,1,6.386-5.2,4.147,4.147,0,0,1,7.6-4.487c1.063.8,5.338,4.53,6.075,5.176a36.766,36.766,0,0,1,6.832-2.2,8.469,8.469,0,0,0-3.244-5.1,9.968,9.968,0,0,1-8.414.136A8.184,8.184,0,0,0,5.675-7.2,5.7,5.7,0,0,0,1.257-5.064Z" transform="translate(0.194 7.199)" fill="#fff"/>
    </g>
    <g id="g1234" transform="translate(15.224 16.558)">
      <path id="path1236" d="M-23.908-8.049c-.05-.044-5.025-4.4-6.153-5.246a2.758,2.758,0,0,0-1.4-.663,1.911,1.911,0,0,0-.665.065,6.009,6.009,0,0,0-1.818,1.082,5.2,5.2,0,0,1-1.776,1.1,2.879,2.879,0,0,1-1.958-.295A.867.867,0,0,1-38-12.362a.606.606,0,0,1,.165-.652L-36.46-14.5c.159-.159.32-.319.485-.477a9.233,9.233,0,0,0-1.252.282,5.438,5.438,0,0,1-1.461.273,13.794,13.794,0,0,1-1.49-.232,22.367,22.367,0,0,1-3.962-1.433,8.779,8.779,0,0,0-3.634,5.272c.28.075.731.208.92.249,4.419.983,5.794,1.995,6.045,2.206a1.466,1.466,0,0,1,1.094-.491,1.476,1.476,0,0,1,1.2.626,1.666,1.666,0,0,1,1.052-.369,1.961,1.961,0,0,1,.632.11,1.443,1.443,0,0,1,.889.8,1.442,1.442,0,0,1,.615-.132,1.849,1.849,0,0,1,.735.161,1.572,1.572,0,0,1,.868,1.754,1.39,1.39,0,0,1,.176-.01A1.753,1.753,0,0,1-31.8-4.151a1.754,1.754,0,0,1-.209.828,2.788,2.788,0,0,0,1.519.407.974.974,0,0,0,.713-.31c.044-.061.09-.134.046-.187L-30.974-4.8s-.207-.193-.139-.269.2.034.288.109c.632.531,1.408,1.329,1.408,1.329s.065.11.35.161A1.3,1.3,0,0,0-28.08-3.7a1.546,1.546,0,0,0,.216-.221.115.115,0,0,1-.015.011.663.663,0,0,0-.035-.821l-1.455-1.633s-.209-.193-.138-.271.2.035.288.111c.461.384,1.112,1.039,1.736,1.65a1.19,1.19,0,0,0,1.4-.049,1.008,1.008,0,0,0,.517-.913,1.049,1.049,0,0,0-.308-.608l-1.988-2s-.21-.18-.137-.27.2.033.287.109c.633.529,2.348,2.1,2.348,2.1a1.2,1.2,0,0,0,1.347-.028.9.9,0,0,0,.444-.711,1.047,1.047,0,0,0-.334-.81" transform="translate(47.773 16.084)" fill="#fff"/>
    </g>
    <g id="g1238" transform="translate(22.198 24.183)">
      <path id="path1240" d="M-7.262-2.949a4.493,4.493,0,0,0-.689.153c-.024-.016.02-.139.049-.211s.434-1.291-.555-1.716a1.164,1.164,0,0,0-1.379.207c-.043.043-.061.039-.066-.016a1.089,1.089,0,0,0-.766-1.015,1.5,1.5,0,0,0-1.688.6,1.08,1.08,0,0,0-1.068-.946,1.085,1.085,0,0,0-1.085,1.084,1.084,1.084,0,0,0,1.084,1.083,1.072,1.072,0,0,0,.749-.3c.006.006.009.016,0,.037a1.428,1.428,0,0,0,.892,1.639,1.06,1.06,0,0,0,1.045-.163c.086-.06.1-.034.087.046a1.017,1.017,0,0,0,.763,1.092.963.963,0,0,0,1.132-.21c.1-.088.123-.072.13.062a1.357,1.357,0,0,0,1.36,1.3A1.363,1.363,0,0,0-5.9-1.583,1.369,1.369,0,0,0-7.262-2.949" transform="translate(14.511 5.892)" fill="#fff"/>
    </g>
    <g id="g1242" transform="translate(15.13 15.782)">
      <path id="path1244" d="M-14.343-14a1.255,1.255,0,0,1-1.263-1.206c0-.059-.009-.213-.138-.213a.24.24,0,0,0-.154.079.889.889,0,0,1-.621.281,1.1,1.1,0,0,1-.409-.088c-.721-.292-.731-.788-.7-.988a.185.185,0,0,0-.026-.15l-.045-.039h-.044a.212.212,0,0,0-.126.05,1.054,1.054,0,0,1-.612.216.934.934,0,0,1-.342-.066,1.325,1.325,0,0,1-.828-1.535.135.135,0,0,0-.042-.126l-.067-.056-.062.061a.975.975,0,0,1-.682.276.988.988,0,0,1-.986-.986.988.988,0,0,1,.988-.985.985.985,0,0,1,.973.862l.034.264.144-.224A1.45,1.45,0,0,1-18.2-19.2a1.472,1.472,0,0,1,.427.068,1,1,0,0,1,.7.929c.011.128.1.134.12.134a.161.161,0,0,0,.114-.06.99.99,0,0,1,.726-.307,1.383,1.383,0,0,1,.543.122c.929.4.507,1.579.5,1.59-.079.2-.082.282-.007.331l.037.018h.027a.662.662,0,0,0,.18-.048,1.582,1.582,0,0,1,.5-.109h0a1.279,1.279,0,0,1,1.266,1.268A1.269,1.269,0,0,1-14.343-14m9.834-5.683c-1.532-1.338-5.074-4.419-6.035-5.139a4.2,4.2,0,0,0-1.249-.727,2.089,2.089,0,0,0-.615-.1,2.6,2.6,0,0,0-.78.131,6.4,6.4,0,0,0-1.836,1.161l-.029.024a5.06,5.06,0,0,1-1.567,1,2.659,2.659,0,0,1-.581.065,1.479,1.479,0,0,1-1.089-.351c-.028-.034-.01-.089.053-.171l.009-.011,1.348-1.453a5.614,5.614,0,0,1,4.35-2.106l.115,0a8.181,8.181,0,0,1,3.018.715,9.336,9.336,0,0,0,4.114.989A10.755,10.755,0,0,0-.766-26.739c-.176-.148-.359-.291-.546-.433a9.947,9.947,0,0,1-3.967.9A8.767,8.767,0,0,1-9.128-27.2a8.68,8.68,0,0,0-3.287-.776h-.128a5.714,5.714,0,0,0-3.747,1.33,7.427,7.427,0,0,0-1.869.342,5.108,5.108,0,0,1-1.316.252c-.17,0-.473-.015-.5-.016a25.616,25.616,0,0,1-4.737-1.313q-.29.205-.559.422a23.393,23.393,0,0,0,5.134,1.483c.21.016.435.039.66.039a5.663,5.663,0,0,0,1.486-.275c.286-.082.6-.169.933-.233l-.265.265-1.37,1.482a.69.69,0,0,0-.187.758.949.949,0,0,0,.361.4,2.846,2.846,0,0,0,1.453.368,2.511,2.511,0,0,0,.581-.061,5.214,5.214,0,0,0,1.814-1.115,6.049,6.049,0,0,1,1.783-1.068,2.073,2.073,0,0,1,.5-.067c.045,0,.088,0,.127.006a2.692,2.692,0,0,1,1.351.645c1.125.845,6.1,5.2,6.15,5.242a.953.953,0,0,1,.3.732.8.8,0,0,1-.4.634,1.216,1.216,0,0,1-.653.2,1.061,1.061,0,0,1-.577-.167c-.02-.015-1.724-1.578-2.352-2.1a.519.519,0,0,0-.293-.158.166.166,0,0,0-.132.061c-.1.122.012.291.143.4l1.992,2a.947.947,0,0,1,.274.542.909.909,0,0,1-.473.825,1.276,1.276,0,0,1-.705.233,1.016,1.016,0,0,1-.568-.174l-.285-.28c-.523-.515-1.062-1.046-1.456-1.375a.527.527,0,0,0-.3-.154.173.173,0,0,0-.126.054c-.045.05-.077.139.035.288a.948.948,0,0,0,.1.112l1.455,1.632a.559.559,0,0,1,.032.7l-.051.066c-.044.048-.09.09-.134.13a1.158,1.158,0,0,1-.71.225,1.073,1.073,0,0,1-.2-.017.478.478,0,0,1-.286-.12l-.017-.02c-.081-.081-.813-.83-1.419-1.335a.508.508,0,0,0-.282-.152.173.173,0,0,0-.131.059c-.121.132.059.329.136.4L-10.6-14.48a.286.286,0,0,1-.049.084c-.044.062-.194.213-.643.269a1.477,1.477,0,0,1-.165.009,2.829,2.829,0,0,1-1.214-.361,1.815,1.815,0,0,0,.177-.785,1.851,1.851,0,0,0-1.849-1.851h-.067a1.635,1.635,0,0,0-.936-1.736,1.93,1.93,0,0,0-.774-.17,1.56,1.56,0,0,0-.567.1,1.543,1.543,0,0,0-.9-.769,2.018,2.018,0,0,0-.664-.117,1.744,1.744,0,0,0-1.033.33,1.571,1.571,0,0,0-1.217-.587,1.57,1.57,0,0,0-1.1.457c-.385-.3-1.917-1.268-6.013-2.2-.2-.044-.653-.175-.933-.257-.046.221-.081.445-.105.671,0,0,.755.181.9.215,4.184.93,5.568,1.9,5.8,2.078a1.593,1.593,0,0,0-.121.6,1.571,1.571,0,0,0,1.568,1.57,1.62,1.62,0,0,0,.287-.026,1.827,1.827,0,0,0,1.183,1.365,1.538,1.538,0,0,0,.559.109,1.479,1.479,0,0,0,.357-.044,1.644,1.644,0,0,0,.973.909,1.657,1.657,0,0,0,.616.126,1.383,1.383,0,0,0,.479-.084,1.849,1.849,0,0,0,1.709,1.148,1.844,1.844,0,0,0,1.325-.561,3.5,3.5,0,0,0,1.565.466,1.894,1.894,0,0,0,.238-.013,1.437,1.437,0,0,0,1.061-.52.884.884,0,0,0,.065-.106,1.791,1.791,0,0,0,.5.077,1.69,1.69,0,0,0,1.012-.361,1.4,1.4,0,0,0,.6-.868.044.044,0,0,0,0-.013,1.663,1.663,0,0,0,.337.034,1.879,1.879,0,0,0,1.04-.329,1.5,1.5,0,0,0,.747-1.336,1.787,1.787,0,0,0,.342.035,1.79,1.79,0,0,0,.973-.3,1.421,1.421,0,0,0,.677-1.1,1.479,1.479,0,0,0-.215-.89,40.21,40.21,0,0,1,6.457-2.021,6.441,6.441,0,0,0-.092-.67,36.876,36.876,0,0,0-6.8,2.21" transform="translate(28.659 27.974)" fill="#28316b"/>
    </g>
    <g id="g1246" transform="translate(95.667 15.207)">
      <path id="path1248" d="M-4.752-5.3a1.432,1.432,0,0,1-1.217.564A1.441,1.441,0,0,1-7.189-5.3a2.6,2.6,0,0,1-.428-1.6,2.581,2.581,0,0,1,.428-1.6,1.443,1.443,0,0,1,1.22-.561A1.433,1.433,0,0,1-4.752-8.5a2.614,2.614,0,0,1,.424,1.6,2.632,2.632,0,0,1-.424,1.6M-3.307-9.49a3.2,3.2,0,0,0-2.656-1.1,3.2,3.2,0,0,0-2.656,1.1A4.021,4.021,0,0,0-9.494-6.9a4,4,0,0,0,.875,2.6A3.22,3.22,0,0,0-5.963-3.22,3.221,3.221,0,0,0-3.307-4.3a4,4,0,0,0,.874-2.6,4.027,4.027,0,0,0-.874-2.59" transform="translate(9.494 10.586)" fill="#28316b"/>
    </g>
    <g id="g1250" transform="translate(81.708 15.241)">
      <path id="path1252" d="M-4.33-4.409a1.452,1.452,0,0,1-.52,1.253,1.884,1.884,0,0,1-1.093.345,1,1,0,0,1-.637-.208.806.806,0,0,1-.262-.672.83.83,0,0,1,.428-.769,2.708,2.708,0,0,1,.834-.246l.413-.078a3.172,3.172,0,0,0,.485-.125,1.707,1.707,0,0,0,.351-.175Zm.919-3.949A4.412,4.412,0,0,0-5.44-8.809a2.984,2.984,0,0,0-2.48.914,2.661,2.661,0,0,0-.511,1.5h1.749a1.3,1.3,0,0,1,.258-.636A1.153,1.153,0,0,1-5.5-7.353a1.878,1.878,0,0,1,.881.164.608.608,0,0,1,.3.587.546.546,0,0,1-.39.515,2.847,2.847,0,0,1-.725.16l-.621.075a4.451,4.451,0,0,0-1.6.447,1.97,1.97,0,0,0-.993,1.849,1.908,1.908,0,0,0,.617,1.523A2.447,2.447,0,0,0-6.472-1.5C-2.516-1.318-2.56-3.58-2.524-4.05v-2.6a1.733,1.733,0,0,0-.887-1.7" transform="translate(8.653 8.809)" fill="#28316b"/>
    </g>
    <g id="g1254" transform="translate(74.43 15.263)">
      <path id="path1256" d="M-3.5-1.531a1.176,1.176,0,0,1,1,.419,1.546,1.546,0,0,1,.275.7H-.279a2.661,2.661,0,0,0-1.034-2.06,3.973,3.973,0,0,0-2.244-.584,3.28,3.28,0,0,0-2.529.99A3.917,3.917,0,0,0-7,.7a3.864,3.864,0,0,0,.829,2.566,3.194,3.194,0,0,0,2.589.988A3.119,3.119,0,0,0-.929,3.067,2.922,2.922,0,0,0-.3,1.506H-2.246a1.638,1.638,0,0,1-.341.889,1.172,1.172,0,0,1-.951.342,1.269,1.269,0,0,1-1.286-.863A3.272,3.272,0,0,1-5.012.654,3.583,3.583,0,0,1-4.824-.625,1.311,1.311,0,0,1-3.5-1.531" transform="translate(7.003 3.059)" fill="#28316b"/>
    </g>
    <g id="g1258" transform="translate(70.132 15.263)">
      <path id="path1260" d="M-3.782,0C-7.79,0-7.554,3.55-7.554,3.55V7.156h1.819V3.773a2.815,2.815,0,0,1,.209-1.232,1.5,1.5,0,0,1,1.466-.71c.054,0,.127,0,.215.009s.191.012.306.024V.015L-3.7,0c-.022,0-.051,0-.086,0" transform="translate(7.557)" fill="#28316b"/>
    </g>
    <g id="g1262" transform="translate(62.434 15.263)">
      <path id="path1264" d="M-2.35-1.887a1.435,1.435,0,0,1,1.079-.394A1.583,1.583,0,0,1-.2-1.909,1.512,1.512,0,0,1,.28-.818H-2.832a1.882,1.882,0,0,1,.482-1.07M.095,1.5a1.329,1.329,0,0,1-.248.275,1.556,1.556,0,0,1-1.017.276,1.719,1.719,0,0,1-.968-.232A1.642,1.642,0,0,1-2.877.375H2.158A9.109,9.109,0,0,0,2.1-1a3.4,3.4,0,0,0-.55-1.429A2.826,2.826,0,0,0,.353-3.448a3.944,3.944,0,0,0-1.623-.323,3.338,3.338,0,0,0-2.473.957A3.75,3.75,0,0,0-4.7-.06,3.349,3.349,0,0,0-3.641,2.707a3.768,3.768,0,0,0,2.435.851,3.355,3.355,0,0,0,2.6-1.008A2.442,2.442,0,0,0,2.025,1.5Z" transform="translate(4.696 3.771)" fill="#28316b"/>
    </g>
    <g id="g1266" transform="translate(51.764 15.239)">
      <path id="path1268" d="M-9.957-7.191h-1.661v-4.184a1.168,1.168,0,0,0-1.222-1.291,1.225,1.225,0,0,0-1.26,1.291v4.184h-1.662v-4.184a1.157,1.157,0,0,0-1.209-1.291,1.218,1.218,0,0,0-1.261,1.291v4.184H-19.9v-4.144a2.853,2.853,0,0,1,2.924-3.034,2.561,2.561,0,0,1,2.066.963,2.65,2.65,0,0,1,2.066-.963,2.773,2.773,0,0,1,2.884,3.034Z" transform="translate(19.896 14.369)" fill="#28316b"/>
    </g>
    <g id="g1270" transform="translate(88.392 13.07)">
      <path id="path1272" d="M-4.56-7.453a1.332,1.332,0,0,1-1.166.571,1.279,1.279,0,0,1-1.145-.573,2.931,2.931,0,0,1-.375-1.578,2.78,2.78,0,0,1,.369-1.488,1.271,1.271,0,0,1,1.164-.6,1.378,1.378,0,0,1,.913.33,2.381,2.381,0,0,1,.641,1.86,2.527,2.527,0,0,1-.4,1.477m2.181-7.431s-1.831-.2-1.831,1.276l0,1.95A2.171,2.171,0,0,0-5-12.422,2.22,2.22,0,0,0-6.12-12.7,2.651,2.651,0,0,0-8.3-11.686a4.473,4.473,0,0,0-.815,2.832A3.766,3.766,0,0,0-8.285-6.34,3.51,3.51,0,0,0-5.691-5.4c3.349,0,3.31-2.873,3.31-2.873Z" transform="translate(9.113 14.893)" fill="#28316b"/>
    </g>
    <g id="g1274" transform="translate(51.762 25.348)">
      <path id="path1276" d="M-4.876-3.7a2.659,2.659,0,0,0-.4-1.583,1.335,1.335,0,0,0-1.15-.555,1.31,1.31,0,0,0-1.123.555A2.671,2.671,0,0,0-7.925-3.7a2.359,2.359,0,0,0,.4,1.5,1.328,1.328,0,0,0,1.149.556,1.279,1.279,0,0,0,1.1-.556,2.5,2.5,0,0,0,.4-1.5M-7.925,1.221a.859.859,0,0,1-.292.655.948.948,0,0,1-.647.243h-.88V-4.2a2.915,2.915,0,0,1,1.1-2.519A3.91,3.91,0,0,1-5.9-7.384a2.758,2.758,0,0,1,2.008.968,3.893,3.893,0,0,1,.859,2.638,4.264,4.264,0,0,1-.8,2.692,2.519,2.519,0,0,1-2.06,1A2.751,2.751,0,0,1-7.069-.321a2.005,2.005,0,0,1-.856-.819Z" transform="translate(9.744 7.393)" fill="#50b4e9"/>
    </g>
    <g id="g1278" transform="translate(65.747 25.321)">
      <path id="path1280" d="M-1.788-3.727q0,1.817,1.051,2.017A1.433,1.433,0,0,0,.813-2.2a1.954,1.954,0,0,0,.341-.908,3.859,3.859,0,0,0,.013-1.226A2.436,2.436,0,0,0,.734-5.416a1.152,1.152,0,0,0-1-.476,1.211,1.211,0,0,0-1.208.66,3.4,3.4,0,0,0-.317,1.5M1.207-.7v-.446A2.005,2.005,0,0,1-.067-.22,2.6,2.6,0,0,1-1.656-.354,2.951,2.951,0,0,1-3.009-1.525a4.05,4.05,0,0,1-.564-2.256A4.362,4.362,0,0,1-2.826-6.43a2.873,2.873,0,0,1,2.4-1.016,3.337,3.337,0,0,1,2.337.686A2.931,2.931,0,0,1,2.993-4.23V-.51A3.1,3.1,0,0,1-.421,2.68,3,3,0,0,1-3.415.413H-1.5A1.373,1.373,0,0,0-.854.979a1.358,1.358,0,0,0,.865.106A1.447,1.447,0,0,0,.8.57,2.159,2.159,0,0,0,1.207-.7" transform="translate(3.573 7.448)" fill="#50b4e9"/>
    </g>
    <g id="g1282" transform="translate(58.949 25.374)">
      <path id="path1284" d="M-4.33-4.409a1.447,1.447,0,0,1-.518,1.253,1.884,1.884,0,0,1-1.093.345,1,1,0,0,1-.638-.208.808.808,0,0,1-.262-.672.829.829,0,0,1,.429-.769,2.709,2.709,0,0,1,.832-.246l.413-.078a2.966,2.966,0,0,0,.485-.125,1.707,1.707,0,0,0,.351-.175Zm.919-3.949a4.433,4.433,0,0,0-2.03-.451,2.979,2.979,0,0,0-2.479.916A2.671,2.671,0,0,0-8.43-6.4h1.749a1.3,1.3,0,0,1,.258-.636,1.156,1.156,0,0,1,.92-.319,1.868,1.868,0,0,1,.881.164.608.608,0,0,1,.3.587.548.548,0,0,1-.39.516,2.913,2.913,0,0,1-.726.159l-.62.075a4.443,4.443,0,0,0-1.6.447,1.969,1.969,0,0,0-.994,1.849,1.908,1.908,0,0,0,.617,1.522A2.444,2.444,0,0,0-6.471-1.5c3.954.177,3.91-2.085,3.947-2.555v-2.6a1.732,1.732,0,0,0-.887-1.7" transform="translate(8.653 8.809)" fill="#50b4e9"/>
    </g>
    <g id="g1286" transform="translate(73.006 25.302)">
      <path id="path1288" d="M-4.75-5.3a1.428,1.428,0,0,1-1.216.565A1.439,1.439,0,0,1-7.186-5.3a2.587,2.587,0,0,1-.429-1.6,2.569,2.569,0,0,1,.429-1.6,1.439,1.439,0,0,1,1.22-.561,1.428,1.428,0,0,1,1.216.561,2.6,2.6,0,0,1,.425,1.6A2.62,2.62,0,0,1-4.75-5.3M-3.3-9.487a3.2,3.2,0,0,0-2.657-1.1,3.192,3.192,0,0,0-2.655,1.1A4.02,4.02,0,0,0-9.492-6.9a4,4,0,0,0,.875,2.6A3.219,3.219,0,0,0-5.962-3.217,3.222,3.222,0,0,0-3.3-4.3a4.007,4.007,0,0,0,.873-2.6A4.032,4.032,0,0,0-3.3-9.487" transform="translate(9.492 10.583)" fill="#50b4e9"/>
    </g>
  </g>
</svg>
